:SAMPLES-PER-SECOND 30
:FULLY-SPECIFIED
:DEGREES
272
root  88.1981 40.1622 -16.4832 -40.2579 -89.1694 37.8928
RightUpLeg  2.19408 -8.07183 -3.91519
RightLeg  9.06383 -1.57071 2.44118
RightFoot  -9.38371 -0.0906279 1.57518
RightToes  0.000482159 0.542163 -0.142577
Spine  3.11001 -0.11327 -2.31751
Spine1  4.28385 -0.806961 3.14641
HEad  4.29054 -3.43477 -1.59812
LeftShoulder1  1.27812 -3.1231 -12.1197
LeftArm  -20.449 13.9786 -5.93443
LeftForeArm  1.5533 -1.08605 -0.0607896
LeftHand  -0.25398 0.0180481 5.50724
RightShoulder  0.380096 -0.63847 5.49199
RightArm  -22.4807 -2.1579 5.6769
RightForeArm  -11.9804 1.86439 3.2827
RightHand  -4.13715 12.1505 -27.3332
LeftUpLeg  3.50051 4.57323 -1.07216
LeftLeg  2.1551 10.6319 -5.93498
LeftFoot  -3.73928 -0.234369 3.8672
LeftToes  1.06247e-005 4.65854e-005 -8.18501e-006
273
root  88.323 40.155 -16.6096 -32.9636 -89.0097 30.4537
RightUpLeg  1.96575 -8.47397 -3.73259
RightLeg  9.97448 -4.04592 1.69395
RightFoot  -10.5542 -0.0878514 2.13
RightToes  0.000482159 0.542163 -0.142577
Spine  3.87918 -0.152108 -3.3101
Spine1  4.08483 -0.972937 3.59407
HEad  6.82596 -3.82236 -0.864696
LeftShoulder1  1.29599 -3.17787 -12.2408
LeftArm  -19.8107 13.9196 -6.04665
LeftForeArm  2.14473 -0.606841 -0.246033
LeftHand  -0.25398 0.0180481 5.50724
RightShoulder  0.408947 -0.488154 5.82612
RightArm  -22.0771 -2.253 6.2108
RightForeArm  -10.4384 1.81464 3.28418
RightHand  -4.11264 12.1166 -27.2294
LeftUpLeg  3.26244 4.98869 -0.644429
LeftLeg  2.62949 9.9843 -6.13381
LeftFoot  -3.72331 -0.22755 3.75754
LeftToes  1.06247e-005 4.65854e-005 -8.18501e-006
274
root  88.4527 40.1666 -16.7431 -25.7559 -88.864 23.0979
RightUpLeg  1.61482 -10.6885 -4.00867
RightLeg  11.636 -7.83495 0.835834
RightFoot  -11.3893 -0.0765376 1.15258
RightToes  0.000482159 0.542163 -0.142577
Spine  4.59283 -0.169942 -3.99547
Spine1  4.07696 -1.06003 3.78672
HEad  9.47599 -4.13627 -0.248213
LeftShoulder1  1.31173 -3.20077 -12.427
LeftArm  -19.7448 13.699 -6.11928
LeftForeArm  2.61095 -0.49525 -0.274872
LeftHand  -0.25398 0.0180481 5.50724
RightShoulder  0.44303 -0.295433 6.10641
RightArm  -21.8972 -2.53983 6.73047
RightForeArm  -8.57858 1.608 3.1477
RightHand  -4.07026 12.0863 -27.0078
LeftUpLeg  3.22757 5.42011 -0.123753
LeftLeg  2.6762 9.26822 -6.44542
LeftFoot  -3.52444 -0.20909 3.37784
LeftToes  1.06247e-005 4.65854e-005 -8.18501e-006
275
root  88.5893 40.19 -16.8845 -18.5052 -88.851 15.7534
RightUpLeg  1.36278 -15.1802 -4.95333
RightLeg  13.3902 -11.0576 0.0598161
RightFoot  -11.562 -0.0772847 0.37633
RightToes  0.000482159 0.542163 -0.142577
Spine  5.09893 -0.112612 -4.33251
Spine1  4.42702 -1.01402 3.7255
HEad  11.9632 -5.02755 0.410666
LeftShoulder1  1.29957 -3.09457 -12.568
LeftArm  -20.4437 13.3094 -6.47982
LeftForeArm  2.74488 -0.853604 -0.112202
LeftHand  -0.25398 0.0180481 5.50724
RightShoulder  0.477635 -0.125062 6.47592
RightArm  -21.845 -2.95556 7.06307
RightForeArm  -7.39321 1.52626 3.0287
RightHand  -4.00678 12.0043 -26.7277
LeftUpLeg  3.28035 5.8305 0.495252
LeftLeg  2.43162 8.61641 -6.76117
LeftFoot  -3.25618 -0.153835 2.45567
LeftToes  1.06247e-005 4.65854e-005 -8.18501e-006
276
root  88.7343 40.2177 -17.0438 -12.9099 -89.0054 10.1923
RightUpLeg  1.04127 -20.5558 -6.23963
RightLeg  14.9269 -12.631 -0.802989
RightFoot  -11.0098 -0.0754904 0.302037
RightToes  0.000482159 0.542163 -0.142577
Spine  5.62532 0.0485825 -4.42289
Spine1  4.70529 -0.787861 3.3687
HEad  14.1322 -6.94088 1.35602
LeftShoulder1  1.28381 -2.97322 -12.7038
LeftArm  -21.5032 12.9254 -6.95681
LeftForeArm  2.95995 -1.61767 0.121255
LeftHand  -0.25398 0.0180481 5.50724
RightShoulder  0.518696 0.0106753 7.1747
RightArm  -21.6139 -3.55866 7.04007
RightForeArm  -7.48917 1.832 3.09226
RightHand  -3.98101 11.9041 -26.71
LeftUpLeg  3.21061 6.11125 1.05213
LeftLeg  2.11572 8.27837 -6.93344
LeftFoot  -2.95 -0.0921313 1.48565
LeftToes  1.06247e-005 4.65854e-005 -8.18501e-006
277
root  88.8852 40.2415 -17.2198 -7.77008 -89.3182 5.20889
RightUpLeg  0.318575 -24.9231 -7.40781
RightLeg  16.3012 -12.6434 -1.90766
RightFoot  -9.96619 -0.0735583 0.489283
RightToes  0.000482159 0.542163 -0.142577
Spine  6.37235 0.253092 -4.3361
Spine1  4.58963 -0.442552 2.68934
HEad  16.2208 -9.3957 2.56174
LeftShoulder1  1.32572 -3.05213 -13.1379
LeftArm  -22.4232 12.8081 -7.08617
LeftForeArm  3.53105 -2.65713 0.305764
LeftHand  -0.25398 0.0180481 5.50724
RightShoulder  0.579479 0.205127 8.14227
RightArm  -21.3586 -4.21002 6.82748
RightForeArm  -7.9853 2.1749 3.18435
RightHand  -4.00419 11.8726 -26.9035
LeftUpLeg  2.87305 6.23699 1.43503
LeftLeg  2.00298 8.37274 -6.88888
LeftFoot  -2.69045 -0.0595215 0.992093
LeftToes  1.06247e-005 4.65854e-005 -8.18501e-006
278
root  89.0323 40.2515 -17.4101 -13.7757 -89.7654 11.4263
RightUpLeg  -0.724031 -27.3999 -8.40021
RightLeg  17.3952 -11.5679 -2.90794
RightFoot  -8.92289 -0.0817883 0.996888
RightToes  0.000482159 0.542163 -0.142577
Spine  7.03072 0.492358 -3.98381
Spine1  4.47338 0.0524962 1.51408
HEad  18.2805 -11.5729 3.94142
LeftShoulder1  1.47638 -3.67886 -13.5548
LeftArm  -23.3513 13.0885 -7.1821
LeftForeArm  4.25471 -3.69506 0.539803
LeftHand  -0.25398 0.0180481 5.50724
RightShoulder  0.668209 0.448035 9.58781
RightArm  -21.2801 -4.72866 6.3979
RightForeArm  -8.17589 2.23356 3.16325
RightHand  -3.99846 11.8475 -26.9036
LeftUpLeg  2.30813 6.33608 1.74735
LeftLeg  2.22857 8.69911 -6.705
LeftFoot  -2.57807 -0.0449643 0.796613
LeftToes  1.06247e-005 4.65854e-005 -8.18501e-006
279
root  89.1635 40.2477 -17.6238 131.436 -89.762 -133.54
RightUpLeg  -1.68724 -28.0431 -9.48782
RightLeg  17.9236 -10.3598 -3.31718
RightFoot  -8.17461 -0.105259 1.80179
RightToes  0.000482159 0.542163 -0.142577
Spine  7.25552 0.842558 -3.32942
Spine1  4.73347 0.813842 -0.2221
HEad  19.9338 -13.7202 5.5664
LeftShoulder1  1.73188 -5.05295 -13.1931
LeftArm  -24.718 13.6085 -8.16636
LeftForeArm  4.79799 -4.3881 0.962726
LeftHand  -0.25398 0.0180481 5.50724
RightShoulder  0.77358 0.54318 12.0326
RightArm  -21.0456 -5.18544 5.36522
RightForeArm  -8.61591 2.39742 3.22144
RightHand  -3.92696 11.7122 -26.6457
LeftUpLeg  1.6682 6.49282 2.12434
LeftLeg  2.61007 8.94566 -6.502
LeftFoot  -2.55158 -0.0220528 0.485472
LeftToes  1.06247e-005 4.65854e-005 -8.18501e-006
